<mxfile host="app.diagrams.net" modified="2023-03-28T14:26:54.055Z" agent="Mozilla/5.0 (Windows NT 10.0; Win64; x64) AppleWebKit/537.36 (KHTML, like Gecko) Chrome/111.0.0.0 Safari/537.36" version="21.1.1" etag="ep9JSxOTxhqfJHW27umG" type="github">
  <diagram name="‫עמוד-1‬" id="EsZolpbqLf_Mc0EqcYhS">
    <mxGraphModel>
      <root>
        <mxCell id="0" />
        <mxCell id="1" parent="0" />
      </root>
    </mxGraphModel>
  </diagram>
</mxfile>
